<?xml version="1.0" encoding="utf-8" ?><svg xmlns="http://www.w3.org/2000/svg" xmlns:xlink="http://www.w3.org/1999/xlink" width="24" height="24"><path fill="#000" transform="matrix(1 0 0 1 4 17)" d="M0.0555 3.9445Q-0.75 3.1391 -0.75 2Q-0.75 0.8609 0.0555 0.0555Q0.8609 -0.75 2 -0.75Q3.1391 -0.75 3.9445 0.0555Q4.75 0.8609 4.75 2Q4.75 3.1391 3.9445 3.9445Q3.1391 4.75 2 4.75Q0.8609 4.75 0.0555 3.9445ZM10.25 2Q10.25 3.1391 11.0555 3.9445Q11.8609 4.75 13 4.75Q14.1391 4.75 14.9445 3.9445Q15.75 3.1391 15.75 2Q15.75 0.8609 14.9445 0.0555Q14.1391 -0.75 13 -0.75Q11.8609 -0.75 11.0555 0.0555Q10.25 0.8609 10.25 2ZM1.1161 2.8839Q1.4822 3.25 2 3.25Q2.5178 3.25 2.8839 2.8839Q3.25 2.5178 3.25 2Q3.25 1.4822 2.8839 1.1161Q2.5178 0.75 2 0.75Q1.4822 0.75 1.1161 1.1161Q0.75 1.4822 0.75 2Q0.75 2.5178 1.1161 2.8839ZM13 3.25Q12.4822 3.25 12.1161 2.8839Q11.75 2.5178 11.75 2Q11.75 1.4822 12.1161 1.1161Q12.4822 0.75 13 0.75Q13.5178 0.75 13.8839 1.1161Q14.25 1.4822 14.25 2Q14.25 2.5178 13.8839 2.8839Q13.5178 3.25 13 3.25Z" fill-rule="evenodd"/><path fill="#000" transform="matrix(1 0 0 1 4 3)" d="M2 14.75L13 14.75Q13.3144 14.759 13.5303 14.5303Q13.759 14.3144 13.75 14Q13.759 13.6856 13.5303 13.4697Q13.3144 13.2409 13 13.25L2.75 13.25L2.75 0Q2.759 -0.3144 2.5303 -0.5303Q2.3144 -0.759 2 -0.75L0 -0.75Q-0.3144 -0.759 -0.5303 -0.5303Q-0.759 -0.3144 -0.75 0Q-0.759 0.3144 -0.5303 0.5303Q-0.3144 0.759 0 0.75L1.25 0.75L1.25 14Q1.241 14.3144 1.4697 14.5303Q1.6856 14.759 2 14.75Z" fill-rule="evenodd"/><path fill="#000" transform="matrix(1 0 0 1 6 5)" d="M14.0534 0.2519L0.0534 -0.7481Q-0.2595 -0.7795 -0.4912 -0.5668Q-0.7347 -0.3677 -0.7481 -0.0534Q-0.7795 0.2595 -0.5668 0.4912Q-0.3677 0.7347 -0.0534 0.7481L13.1437 1.6907L12.3495 7.25L0 7.25Q-0.3144 7.2409 -0.5303 7.4697Q-0.759 7.6856 -0.75 8Q-0.759 8.3144 -0.5303 8.5303Q-0.3144 8.759 0 8.75L13 8.75Q13.2822 8.7562 13.4914 8.5666Q13.7087 8.3863 13.7425 8.1061L14.7425 1.1061Q14.7443 1.093 14.7458 1.0798Q14.7472 1.0666 14.7481 1.0534Q14.7795 0.7405 14.5668 0.5088Q14.3677 0.2653 14.0534 0.2519Z" fill-rule="evenodd"/></svg>